<svg width="512" height="512" viewBox="0 0 512 512" fill="#fff" xmlns="http://www.w3.org/2000/svg">
<g clip-path="url(#clip0)">
<path d="M502.38 177.313L262.362 73.3054C258.303 71.5463 253.697 71.5463 249.638 73.3054L9.61972 177.313C-3.20524 182.871 -3.20823 201.119 9.61972 206.676L95.9881 244.102V344.006C95.9881 397.842 166.273 440.013 256 440.013C345.727 440.013 416.012 397.842 416.012 344.006V244.102L432.013 237.169V408.01C432.013 416.847 439.178 424.012 448.014 424.012C456.851 424.012 464.015 416.847 464.015 408.01V223.302L502.38 206.677C515.205 201.12 515.207 182.872 502.38 177.313ZM256 105.426L455.774 191.995L439.93 198.861L257.984 176.117C249.215 175.028 241.218 181.241 240.122 190.01C239.026 198.779 245.246 206.776 254.015 207.872L382.166 223.892L256 278.564C143.135 229.655 167.173 240.072 56.2262 191.994L256 105.426ZM384.009 344.007C384.009 359.083 371.636 374.605 350.06 386.591C298.675 415.138 213.475 415.222 161.94 386.591C140.364 374.605 127.991 359.083 127.991 344.007V257.971L249.638 310.685C253.69 312.441 258.295 312.447 262.362 310.685L384.009 257.971V344.007Z" fill="black"/>
</g>
<defs>
<clipPath id="clip0">
<rect width="512" height="512" fill="white"/>
</clipPath>
</defs>
</svg>
