<svg width="512" height="512" viewBox="0 0 512 512" fill="#fff" xmlns="http://www.w3.org/2000/svg">
<path d="M486.156 19H111.559C97.3086 19 85.7188 30.5938 85.7188 44.8438V84.0742H25.8438C11.5938 84.0742 0 95.668 0 109.918V442.457C0 470.094 22.3945 492.602 49.9961 492.801H50.0977C50.1875 492.805 50.2695 492.812 50.3594 492.812H315.668C319.809 492.812 323.168 489.457 323.168 485.312C323.168 481.172 319.809 477.812 315.668 477.812H86.1836C95.1641 468.715 100.719 456.223 100.719 442.457V267.07C100.719 262.93 97.3594 259.57 93.2188 259.57C89.0742 259.57 85.7188 262.93 85.7188 267.07V442.457C85.7188 461.887 69.9609 477.703 50.5508 477.809C50.4883 477.809 50.4258 477.801 50.3594 477.801C30.8633 477.797 15 461.941 15 442.457V109.918C15 103.941 19.8633 99.0742 25.8438 99.0742H85.7188V239.07C85.7188 243.215 89.0742 246.57 93.2188 246.57C97.3594 246.57 100.719 243.215 100.719 239.07V44.8438C100.719 38.8633 105.582 34 111.559 34H486.156C492.137 34 497 38.8633 497 44.8438V442.457C497 461.953 481.137 477.812 461.641 477.812H343.668C339.523 477.812 336.168 481.172 336.168 485.312C336.168 489.457 339.523 492.812 343.668 492.812H461.641C489.41 492.812 512 470.223 512 442.457V44.8438C512 30.5938 500.406 19 486.156 19V19Z" fill="black"/>
<path d="M164.32 318.262H267.184C276.969 318.262 284.93 310.301 284.93 300.516V197.652C284.93 187.867 276.969 179.906 267.184 179.906H164.32C154.535 179.906 146.574 187.867 146.574 197.652V300.516C146.574 310.301 154.535 318.262 164.32 318.262ZM161.574 197.652C161.574 196.137 162.805 194.906 164.32 194.906H267.184C268.695 194.906 269.93 196.137 269.93 197.652V300.516C269.93 302.027 268.695 303.262 267.184 303.262H164.32C162.805 303.262 161.574 302.027 161.574 300.516V197.652Z" fill="black"/>
<path d="M312.191 194.906H451.391C455.531 194.906 458.891 191.551 458.891 187.406C458.891 183.262 455.531 179.906 451.391 179.906H312.191C308.051 179.906 304.691 183.262 304.691 187.406C304.691 191.551 308.051 194.906 312.191 194.906Z" fill="black"/>
<path d="M312.191 256.586H451.391C455.531 256.586 458.891 253.227 458.891 249.086C458.891 244.941 455.531 241.586 451.391 241.586H312.191C308.051 241.586 304.691 244.941 304.691 249.086C304.691 253.227 308.051 256.586 312.191 256.586Z" fill="black"/>
<path d="M312.191 318.262H451.391C455.531 318.262 458.891 314.902 458.891 310.762C458.891 306.617 455.531 303.262 451.391 303.262H312.191C308.051 303.262 304.691 306.617 304.691 310.762C304.691 314.902 308.051 318.262 312.191 318.262Z" fill="black"/>
<path d="M154.074 379.938H451.391C455.531 379.938 458.891 376.582 458.891 372.438C458.891 368.297 455.531 364.938 451.391 364.938H154.074C149.934 364.938 146.574 368.297 146.574 372.438C146.574 376.582 149.934 379.938 154.074 379.938Z" fill="black"/>
<path d="M154.074 441.617H451.391C455.531 441.617 458.891 438.262 458.891 434.117C458.891 429.973 455.531 426.617 451.391 426.617H154.074C149.934 426.617 146.574 429.973 146.574 434.117C146.574 438.262 149.934 441.617 154.074 441.617Z" fill="black"/>
<path d="M146.766 141.527V62.2773C146.766 60.6484 147.539 59.4062 149.086 58.5547C150.633 57.6992 152.508 57.2695 154.703 57.2695C157.637 57.2695 159.871 57.8008 161.422 58.8594C162.965 59.918 164.676 62.1992 166.551 65.6953L190.117 111.246V62.1562C190.117 60.5273 190.891 59.3086 192.438 58.4922C193.98 57.6797 195.855 57.2695 198.055 57.2695C200.254 57.2695 202.125 57.6797 203.672 58.4922C205.219 59.3086 205.992 60.5273 205.992 62.1562V141.527C205.992 143.078 205.195 144.297 203.609 145.191C202.023 146.09 200.172 146.535 198.055 146.535C193.738 146.535 190.684 144.867 188.895 141.527L162.641 92.4375V141.527C162.641 143.078 161.848 144.297 160.262 145.191C158.676 146.09 156.82 146.535 154.703 146.535C152.508 146.535 150.633 146.09 149.09 145.191C147.539 144.297 146.766 143.078 146.766 141.527Z" fill="black"/>
<path d="M220.645 141.527V62.2773C220.645 60.7305 221.336 59.5117 222.723 58.6133C224.105 57.7188 225.73 57.2695 227.605 57.2695H271.078C272.703 57.2695 273.949 57.9648 274.801 59.3477C275.656 60.7305 276.086 62.3203 276.086 64.1094C276.086 66.0625 275.637 67.7344 274.742 69.1172C273.844 70.5039 272.621 71.1914 271.078 71.1914H236.52V95.6133H255.082C256.625 95.6133 257.848 96.2461 258.746 97.5078C259.641 98.7695 260.09 100.254 260.09 101.965C260.09 103.512 259.66 104.914 258.805 106.18C257.949 107.441 256.711 108.07 255.082 108.07H236.52V132.617H271.078C272.621 132.617 273.844 133.309 274.742 134.691C275.637 136.078 276.086 137.746 276.086 139.699C276.086 141.488 275.656 143.078 274.801 144.461C273.949 145.848 272.703 146.535 271.078 146.535H227.605C225.73 146.535 224.105 146.09 222.723 145.195C221.336 144.297 220.645 143.078 220.645 141.527Z" fill="black"/>
<path d="M284.023 63.6211C284.023 61.9102 285.121 60.4258 287.32 59.1641C289.516 57.9023 291.797 57.2695 294.156 57.2695C297.09 57.2695 298.84 58.3281 299.406 60.4453L318.703 126.633L329.082 84.1367C329.812 81.2031 332.418 79.7383 336.895 79.7383C341.293 79.7383 343.855 81.2031 344.59 84.1367L354.969 126.633L374.262 60.4453C374.832 58.3281 376.582 57.2695 379.516 57.2695C381.875 57.2695 384.152 57.9023 386.352 59.1641C388.551 60.4258 389.648 61.9102 389.648 63.6211C389.648 64.1094 389.566 64.5977 389.406 65.0859L365.227 141.895C364.004 145.48 360.543 147.27 354.848 147.27C352.406 147.27 350.207 146.801 348.254 145.863C346.301 144.93 345.117 143.605 344.711 141.895L336.898 108.926L328.961 141.895C328.551 143.605 327.371 144.93 325.418 145.863C323.465 146.801 321.266 147.27 318.824 147.27C316.301 147.27 314.062 146.801 312.109 145.863C310.152 144.93 308.934 143.605 308.445 141.895L284.266 65.0859C284.102 64.5977 284.023 64.1094 284.023 63.6211Z" fill="black"/>
<path d="M393.68 132.492C393.68 130.621 394.391 128.727 395.816 126.812C397.238 124.902 398.848 123.945 400.641 123.945C401.695 123.945 402.898 124.453 404.242 125.469C405.586 126.48 406.887 127.605 408.148 128.828C409.41 130.055 411.223 131.176 413.586 132.191C415.945 133.207 418.551 133.711 421.398 133.711C425.309 133.711 428.562 132.816 431.168 131.023C433.773 129.234 435.074 126.59 435.074 123.09C435.074 120.645 434.363 118.469 432.938 116.555C431.516 114.645 429.641 113.055 427.32 111.793C425.004 110.531 422.457 109.309 419.691 108.129C416.922 106.949 414.133 105.625 411.324 104.16C408.516 102.695 405.953 101.047 403.633 99.2148C401.313 97.3828 399.438 94.9414 398.016 91.8867C396.59 88.8359 395.879 85.3555 395.879 81.4492C395.879 77.0703 396.754 73.2031 398.504 69.8594C400.254 66.5117 402.594 63.9102 405.523 62.0508C408.453 60.1914 411.586 58.8281 414.926 57.9609C418.262 57.0937 421.805 56.6562 425.551 56.6562C427.664 56.6562 429.902 56.8047 432.266 57.0977C434.625 57.3906 437.129 57.8711 439.777 58.5391C442.422 59.207 444.578 60.2539 446.246 61.6719C447.914 63.0938 448.75 64.7656 448.75 66.6914C448.75 68.5039 448.18 70.3789 447.043 72.3164C445.902 74.2539 444.355 75.2188 442.402 75.2188C441.668 75.2188 439.672 74.4453 436.418 72.8984C433.16 71.3516 429.539 70.5781 425.551 70.5781C421.152 70.5781 417.754 71.4141 415.355 73.082C412.953 74.7539 411.75 77.0508 411.75 79.9805C411.75 82.3438 412.727 84.3984 414.684 86.1484C416.637 87.8984 419.059 89.3242 421.949 90.4219C424.836 91.5195 427.973 92.9062 431.352 94.5742C434.727 96.2422 437.863 98.0547 440.754 100.008C443.641 101.961 446.066 104.789 448.02 108.492C449.973 112.199 450.949 116.535 450.949 121.5C450.949 129.848 448.281 136.293 442.953 140.828C437.617 145.363 430.598 147.633 421.887 147.633C414.152 147.633 407.52 146.043 401.984 142.867C396.445 139.699 393.68 136.238 393.68 132.492Z" fill="black"/>
</svg>
